<?xml version="1.0" encoding="utf-8"?>
<!-- Generator: Adobe Illustrator 24.1.3, SVG Export Plug-In . SVG Version: 6.00 Build 0)  -->
<svg version="1.1" xmlns="http://www.w3.org/2000/svg" xmlns:xlink="http://www.w3.org/1999/xlink" x="0px" y="0px"
	 viewBox="0 0 125 33.2" style="enable-background:new 0 0 125 33.2;" xml:space="preserve">
<style type="text/css">
	.st0{fill:#091820;}
	.st1{fill:#FF6D00;}
</style>
<g id="Layer_2">
</g>
<g id="Layer_1">
	<g>
		<g>
			<polygon class="st0" points="22.6,16.6 31.3,25.3 25.2,31.4 10.5,16.6 25.2,1.9 31.3,7.9 			"/>
			<polygon class="st1" points="22.6,16.6 7.9,31.4 1.8,25.3 10.5,16.6 1.8,7.9 7.9,1.9 			"/>
		</g>
		<g>
			<g>
				<path class="st0" d="M50.1,9.9c-1.1,0-2,0.2-2.9,0.5c-0.7,0.3-1.4,0.7-1.9,1.3v-1.6H42v14.4h3.6v-7.3c0-1.3,0.3-2.4,1-3.1
					c0.7-0.7,1.6-1.1,2.8-1.1c1,0,1.9,0.3,2.4,0.9c0.6,0.6,0.8,1.5,0.8,2.7v7.8h3.6v-8.2c0-2.1-0.6-3.7-1.7-4.7
					C53.4,10.4,52,9.9,50.1,9.9z"/>
				<rect x="59.5" y="10.1" class="st0" width="3.6" height="14.4"/>
				<path class="st0" d="M62.9,4.3c-0.4-0.4-1-0.6-1.6-0.6c-0.6,0-1.2,0.2-1.6,0.6C59.3,4.7,59,5.3,59,5.8c0,0.6,0.2,1.1,0.6,1.5
					c0.4,0.4,1,0.6,1.6,0.6c0.6,0,1.2-0.2,1.6-0.6c0.4-0.4,0.6-0.9,0.6-1.6C63.5,5.2,63.3,4.7,62.9,4.3z"/>
				<path class="st0" d="M74.7,9.9c-1.1,0-2,0.2-2.9,0.5c-0.7,0.3-1.4,0.7-1.9,1.3v-1.6h-3.4v14.4h3.6v-7.3c0-1.3,0.3-2.4,1-3.1
					c0.7-0.7,1.6-1.1,2.8-1.1c1,0,1.9,0.3,2.4,0.9c0.6,0.6,0.8,1.5,0.8,2.7v7.8h3.6v-8.2c0-2.1-0.6-3.7-1.7-4.7
					C78,10.4,76.5,9.9,74.7,9.9z"/>
				<path class="st0" d="M91.8,21.1c-0.5,0.4-1.1,0.6-1.8,0.6c-0.6,0-1.1-0.2-1.4-0.5c-0.3-0.3-0.5-0.8-0.5-1.5v-6.6H92v-2.9h-3.8
					V6.9h-3.6v3.2h-2.3v2.9h2.3v6.7c0,1.6,0.4,2.8,1.3,3.6c0.9,0.8,2.1,1.3,3.7,1.3c0.6,0,1.2-0.1,1.8-0.2c0.6-0.2,1.1-0.4,1.5-0.7
					l0.1-0.1l-1-2.6L91.8,21.1z"/>
				<path class="st0" d="M107.1,13.5c-0.6-1.1-1.5-2-2.6-2.6c-1.1-0.6-2.4-0.9-3.8-0.9c-1.4,0-2.7,0.3-3.8,0.9
					c-1.1,0.6-2,1.5-2.7,2.6c-0.6,1.1-1,2.4-1,3.8c0,1.4,0.3,2.7,1,3.8c0.7,1.1,1.6,2,2.8,2.6c1.2,0.6,2.6,0.9,4.2,0.9
					c1.2,0,2.4-0.2,3.3-0.6c1-0.4,1.8-1,2.5-1.8l0.1-0.1l-1.9-2.2l-0.1,0.1c-1,1-2.2,1.5-3.8,1.5c-1.2,0-2.2-0.3-3-0.9
					c-0.8-0.6-1.2-1.3-1.5-2.3H108l0-0.1c0-0.4,0.1-0.8,0.1-1C108.1,15.9,107.7,14.6,107.1,13.5z M98.1,13.7
					c0.7-0.6,1.6-0.9,2.6-0.9c1,0,1.9,0.3,2.6,0.9c0.7,0.6,1.1,1.4,1.2,2.3h-7.8C97,15.1,97.5,14.3,98.1,13.7z"/>
				<polygon class="st0" points="117.6,17.1 123,10.1 119.1,10.1 115.7,14.6 112.3,10.1 108.3,10.1 113.6,17.2 108,24.5 112,24.5 
					115.6,19.6 119.2,24.5 123.2,24.5 				"/>
			</g>
		</g>
	</g>
</g>
</svg>
